<?xml version="1.0" encoding="UTF-8"?>
<svg id="uuid-b38c26bf-b757-44c8-b494-f1870ab1ea7a" data-name="Capa 1" xmlns="http://www.w3.org/2000/svg" viewBox="0 0 800 722.58">
  <path d="M722.58,0H77.42C34.84,0,0,34.84,0,77.42s34.84,77.42,77.42,77.42h645.16c42.58,0,77.42-34.84,77.42-77.42S765.16,0,722.58,0Z" style="fill: #386641;"/>
  <path d="M722.58,283.87H77.42c-42.58,0-77.42,34.84-77.42,77.42s34.84,77.42,77.42,77.42h645.16c42.58,0,77.42-34.84,77.42-77.42s-34.84-77.42-77.42-77.42Z" style="fill: #386641;"/>
  <path d="M722.58,567.74H77.42c-42.58,0-77.42,34.84-77.42,77.42s34.84,77.42,77.42,77.42h645.16c42.58,0,77.42-34.84,77.42-77.42s-34.84-77.42-77.42-77.42Z" style="fill: #386641;"/>
</svg>