<?xml version="1.0" encoding="UTF-8"?>
<svg id="uuid-10867a22-7734-480f-9d52-44516b585255" data-name="Calque 1" xmlns="http://www.w3.org/2000/svg" viewBox="0 0 32 32">
  <path d="M6.15,0C2.83,0,0,2.83,0,6.15v19.69c0,3.32,2.83,6.15,6.15,6.15h19.69c3.32,0,6.15-2.83,6.15-6.15V6.15c0-3.32-2.83-6.15-6.15-6.15H6.15ZM6.15,2.46h19.69c2.09,0,3.69,1.6,3.69,3.69v19.69c0,2.09-1.6,3.69-3.69,3.69h-3.94v-9.97h3.45l.49-3.94h-3.94v-2.58c0-1.11.37-1.97,1.97-1.97h2.09v-3.57c-.37,0-1.6-.12-3.08-.12-3.08,0-5.17,1.85-5.17,5.17v2.95h-3.08v3.94h3.08v9.97H6.15c-2.09,0-3.69-1.6-3.69-3.69V6.15c0-2.09,1.6-3.69,3.69-3.69Z" style="fill: #f9f7f7;"/>
</svg>