<?xml version="1.0" encoding="UTF-8"?>
<svg id="uuid-6dd8b62e-826b-4989-92d4-be903c009acf" data-name="Calque 1" xmlns="http://www.w3.org/2000/svg" viewBox="0 0 32 32">
  <path d="M9.29,0C4.17,0,0,4.17,0,9.29v13.43c0,5.11,4.17,9.28,9.29,9.28h13.43c5.11,0,9.28-4.17,9.28-9.29v-13.42c0-5.12-4.17-9.29-9.29-9.29h-13.42ZM9.29,2.46h13.42c3.79,0,6.83,3.04,6.83,6.83v13.42c0,3.79-3.04,6.83-6.82,6.83h-13.43c-3.79,0-6.83-3.04-6.83-6.82v-13.43c0-3.79,3.04-6.83,6.83-6.83ZM25.85,4.92c-.68,0-1.23.55-1.23,1.23s.55,1.23,1.23,1.23,1.23-.55,1.23-1.23-.55-1.23-1.23-1.23ZM16,7.38c-4.74,0-8.62,3.88-8.62,8.62s3.88,8.62,8.62,8.62,8.62-3.88,8.62-8.62-3.88-8.62-8.62-8.62ZM16,9.85c3.41,0,6.15,2.74,6.15,6.15s-2.74,6.15-6.15,6.15-6.15-2.74-6.15-6.15,2.74-6.15,6.15-6.15Z" style="fill: #f7f0f0;"/>
</svg>